<svg width="18" height="18" viewBox="0 0 18 18" fill="none" xmlns="http://www.w3.org/2000/svg">
<path d="M8.99935 0.666748C11.2635 0.666748 11.546 0.675081 12.4343 0.716748C13.3218 0.758415 13.926 0.897581 14.4577 1.10425C15.0077 1.31591 15.471 1.60258 15.9344 2.06508C16.3581 2.48166 16.686 2.98557 16.8952 3.54175C17.101 4.07258 17.241 4.67758 17.2827 5.56508C17.3218 6.45341 17.3327 6.73592 17.3327 9.00008C17.3327 11.2642 17.3244 11.5467 17.2827 12.4351C17.241 13.3226 17.101 13.9267 16.8952 14.4584C16.6866 15.0149 16.3586 15.5189 15.9344 15.9351C15.5177 16.3587 15.0138 16.6865 14.4577 16.8959C13.9268 17.1017 13.3218 17.2417 12.4343 17.2834C11.546 17.3226 11.2635 17.3334 8.99935 17.3334C6.73518 17.3334 6.45268 17.3251 5.56435 17.2834C4.67685 17.2417 4.07268 17.1017 3.54102 16.8959C2.98462 16.6871 2.48062 16.3592 2.06435 15.9351C1.64052 15.5186 1.31263 15.0146 1.10352 14.4584C0.896849 13.9276 0.757682 13.3226 0.716016 12.4351C0.676849 11.5467 0.666016 11.2642 0.666016 9.00008C0.666016 6.73592 0.674349 6.45341 0.716016 5.56508C0.757682 4.67675 0.896849 4.07341 1.10352 3.54175C1.31205 2.98523 1.64002 2.48118 2.06435 2.06508C2.48074 1.64111 2.98471 1.31319 3.54102 1.10425C4.07268 0.897581 4.67602 0.758415 5.56435 0.716748C6.45268 0.677581 6.73518 0.666748 8.99935 0.666748ZM8.99935 4.83342C7.89428 4.83342 6.83447 5.2724 6.05307 6.0538C5.27167 6.83521 4.83268 7.89501 4.83268 9.00008C4.83268 10.1052 5.27167 11.165 6.05307 11.9464C6.83447 12.7278 7.89428 13.1667 8.99935 13.1667C10.1044 13.1667 11.1642 12.7278 11.9456 11.9464C12.727 11.165 13.166 10.1052 13.166 9.00008C13.166 7.89501 12.727 6.83521 11.9456 6.0538C11.1642 5.2724 10.1044 4.83342 8.99935 4.83342ZM14.416 4.62508C14.416 4.34881 14.3063 4.08386 14.1109 3.88851C13.9156 3.69316 13.6506 3.58341 13.3743 3.58341C13.0981 3.58341 12.8331 3.69316 12.6378 3.88851C12.4424 4.08386 12.3327 4.34881 12.3327 4.62508C12.3327 4.90135 12.4424 5.1663 12.6378 5.36165C12.8331 5.557 13.0981 5.66675 13.3743 5.66675C13.6506 5.66675 13.9156 5.557 14.1109 5.36165C14.3063 5.1663 14.416 4.90135 14.416 4.62508ZM8.99935 6.50008C9.66239 6.50008 10.2983 6.76347 10.7671 7.23231C11.236 7.70116 11.4993 8.33704 11.4993 9.00008C11.4993 9.66312 11.236 10.299 10.7671 10.7678C10.2983 11.2367 9.66239 11.5001 8.99935 11.5001C8.33631 11.5001 7.70042 11.2367 7.23158 10.7678C6.76274 10.299 6.49935 9.66312 6.49935 9.00008C6.49935 8.33704 6.76274 7.70116 7.23158 7.23231C7.70042 6.76347 8.33631 6.50008 8.99935 6.50008Z" fill="white"/>
</svg>
