<svg width="18" height="18" viewBox="0 0 18 18" fill="none" xmlns="http://www.w3.org/2000/svg">
<path d="M10.1417 0.745023C8.1478 0.470736 6.12195 0.92715 4.43827 2.02999C2.75459 3.13283 1.52679 4.80761 0.98158 6.74508C0.436374 8.68255 0.610587 10.7519 1.47205 12.5709C2.33351 14.3899 3.82404 15.8359 5.66841 16.6417C5.61854 16.0015 5.66432 15.3575 5.80425 14.7309C5.95841 14.0317 6.88425 10.1784 6.88425 10.1784C6.69989 9.7651 6.60775 9.31665 6.61425 8.86419C6.61425 7.62669 7.32841 6.70336 8.21675 6.70336C8.37634 6.70103 8.53455 6.7331 8.68064 6.79738C8.82673 6.86166 8.95727 6.95665 9.06337 7.07588C9.16948 7.19511 9.24866 7.33578 9.29555 7.48835C9.34243 7.64091 9.35592 7.80178 9.33508 7.96002C9.33508 8.71002 8.85341 9.84502 8.60175 10.91C8.55201 11.1053 8.54885 11.3096 8.59253 11.5064C8.63621 11.7031 8.7255 11.8869 8.85321 12.0428C8.98092 12.1987 9.14347 12.3225 9.32777 12.4041C9.51207 12.4857 9.71296 12.5228 9.91425 12.5125C11.4959 12.5125 12.5559 10.4867 12.5559 8.09502C12.5559 6.26169 11.3417 4.88836 9.10341 4.88836C8.56789 4.86755 8.03373 4.95579 7.53336 5.14773C7.03298 5.33968 6.57684 5.63131 6.19262 6.00493C5.8084 6.37855 5.50413 6.82636 5.29827 7.32117C5.0924 7.81598 4.98925 8.34746 4.99508 8.88336C4.97122 9.47779 5.163 10.0608 5.53508 10.525C5.60461 10.5769 5.65537 10.65 5.67973 10.7333C5.70408 10.8166 5.70069 10.9055 5.67008 10.9867C5.63175 11.14 5.53508 11.5059 5.49675 11.64C5.48877 11.6855 5.47023 11.7285 5.4426 11.7655C5.41497 11.8026 5.37904 11.8326 5.33769 11.8532C5.29634 11.8738 5.25073 11.8844 5.20454 11.8841C5.15835 11.8838 5.11286 11.8727 5.07175 11.8517C3.91841 11.39 3.37508 10.1209 3.37508 8.67169C3.37508 6.29919 5.36175 3.45919 9.33675 3.45919C12.5001 3.45919 14.6034 5.77336 14.6034 8.24836C14.6034 11.5059 12.7892 13.955 10.1084 13.955C9.70774 13.9678 9.3103 13.8794 8.95286 13.6979C8.59541 13.5164 8.2895 13.2477 8.06341 12.9167C8.06341 12.9167 7.58175 14.8467 7.48675 15.2117C7.29282 15.8423 7.00667 16.4407 6.63758 16.9875C7.40675 17.2209 8.20591 17.3375 9.00925 17.3342C10.1039 17.3351 11.188 17.12 12.1994 16.7013C13.2108 16.2827 14.1297 15.6686 14.9035 14.8943C15.6772 14.12 16.2907 13.2007 16.7086 12.1889C17.1266 11.1772 17.3409 10.093 17.3392 8.99836C17.3382 6.98586 16.6091 5.04169 15.2864 3.52484C13.9638 2.00799 12.137 1.02091 10.1434 0.745857L10.1417 0.745023Z" fill="white"/>
</svg>
