<svg width="18" height="14" viewBox="0 0 18 14" fill="none" xmlns="http://www.w3.org/2000/svg">
<path d="M17.4683 1.71327C16.8321 1.99468 16.1574 2.1795 15.4666 2.26161C16.1947 1.82613 16.7397 1.14078 16.9999 0.333272C16.3166 0.739939 15.5674 1.02494 14.7866 1.17911C14.2621 0.617921 13.5669 0.245741 12.8091 0.120426C12.0512 -0.00488923 11.2732 0.123681 10.596 0.48615C9.91875 0.848618 9.38025 1.42468 9.06418 2.12477C8.74812 2.82486 8.67221 3.60976 8.84826 4.35744C7.46251 4.28798 6.10687 3.92787 4.86933 3.30049C3.63179 2.67311 2.54003 1.79248 1.66492 0.715772C1.35516 1.24781 1.19238 1.85263 1.19326 2.46827C1.19326 3.6766 1.80826 4.74411 2.74326 5.36911C2.18993 5.35169 1.64878 5.20226 1.16492 4.93327V4.9766C1.16509 5.78136 1.44356 6.56129 1.95313 7.18415C2.46269 7.80702 3.17199 8.2345 3.96076 8.3941C3.4471 8.5333 2.90851 8.55382 2.38576 8.4541C2.60814 9.1468 3.04159 9.7526 3.62542 10.1867C4.20924 10.6208 4.9142 10.8614 5.64159 10.8749C4.91866 11.4427 4.0909 11.8624 3.20566 12.1101C2.32041 12.3577 1.39503 12.4285 0.482422 12.3183C2.0755 13.3428 3.93 13.8867 5.82409 13.8849C12.2349 13.8849 15.7408 8.57411 15.7408 3.96827C15.7408 3.81827 15.7366 3.66661 15.7299 3.51827C16.4123 3.02508 17.0013 2.41412 17.4691 1.71411L17.4683 1.71327Z" fill="white"/>
</svg>
